<mxfile host="app.diagrams.net" modified="2023-05-30T20:51:13.736Z" agent="Mozilla/5.0 (Macintosh; Intel Mac OS X 10_15_7) AppleWebKit/537.36 (KHTML, like Gecko) Chrome/113.0.0.0 Safari/537.36" etag="rEWZJTuGtBk1ncXE5cRD" version="21.3.6" type="github">
  <diagram name="Page-1" id="nG4e7N0qLoZxv2Oh2Jfd">
    <mxGraphModel dx="1314" dy="842" grid="1" gridSize="10" guides="1" tooltips="1" connect="1" arrows="1" fold="1" page="1" pageScale="1" pageWidth="827" pageHeight="1169" math="0" shadow="0">
      <root>
        <mxCell id="0" />
        <mxCell id="1" parent="0" />
      </root>
    </mxGraphModel>
  </diagram>
</mxfile>
